# xmcd CD database file
#
# Track frame offsets:
#	150
#	31100
#	37378
#	60503
#	74088
#	110288
#	133285
#	166343
#	192928
#
# Disc length: 2889 seconds
#
# Revision: 0
# Processed by: cddbd v1.5.1PL0 Copyright (c) Steve Scherf et al.
# Submitted via: CDex 1.51
#
DISCID=840b4709
DTITLE=Peter Erskine - Transition
DYEAR=1987
DGENRE=Jazz
TTITLE0=Osaka Castle
TTITLE1=The Rabbit In The Moon
TTITLE2=Corazon
TTITLE3=Lions And Tigers And Bears
TTITLE4=Transition (From Shakespear's King Richard III)
TTITLE5=Smart Shoppers
TTITLE6=Music Plays (From King Richard III)
TTITLE7=Orson Welles
TTITLE8=My Foolish Heart
EXTD=YEAR: 1987
EXTT0=
EXTT1=
EXTT2=
EXTT3=
EXTT4=
EXTT5=
EXTT6=
EXTT7=
EXTT8=
PLAYORDER=
